# xmcd
#
# Track frame offsets:
#	150
#	15901
#	27682
#	44089
#	67223
#	90169
#
# Disc length: 1454 seconds
# Revision: 0
# Processed by: cddbd v1.5.2PL0 Copyright (c) Steve Scherf et al.
# Submitted via: dBpowerAMP V12.0
#
DISCID=4905ac06
DTITLE=Derek Nelson and the Musicians - Riders of the Tide
DYEAR=2016
DGENRE=Alt-Country
TTITLE0=Come and Wait
TTITLE1=Oh, Mama (I'm Going to the Other Side)
TTITLE2=Die, Darlin'
TTITLE3=The Way You See Me
TTITLE4=Backwater Town
TTITLE5=Riders of the Tide
EXTD=
EXTT0=
EXTT1=
EXTT2=
EXTT3=
EXTT4=
EXTT5=
PLAYORDER=
